<svg xmlns="http://www.w3.org/2000/svg" viewBox="0 0 49 49"><path fill="white" d="M27.5 5h6v10h-6z"/><path fill="white" d="M39.914 0H.5v49h48V8.586L39.914 0zM10.5 2h26v16h-26V2zm29 45h-31V26h31v21z"/><path fill="white" d="M13.5 32h7c.553 0 1-.447 1-1s-.447-1-1-1h-7c-.553 0-1 .447-1 1s.447 1 1 1zM13.5 36h10c.553 0 1-.447 1-1s-.447-1-1-1h-10c-.553 0-1 .447-1 1s.447 1 1 1zM26.5 36c.27 0 .52-.11.71-.29.18-.19.29-.45.29-.71s-.11-.521-.29-.71c-.37-.37-1.04-.37-1.41 0-.19.189-.3.439-.3.71 0 .27.109.52.29.71.189.18.439.29.71.29z"/></svg>