<svg xmlns="http://www.w3.org/2000/svg" viewBox="0 0 32 32"><path fill="white" d="M30.276 1.722C29.168.611 27.69 0 26.121 0s-3.045.61-4.154 1.72L4.294 19.291c-.105.104-.185.229-.235.367l-4 11c-.129.355-.046.756.215 1.031.192.202.455.311.726.311.098 0 .196-.014.293-.044l9.949-3.052c.156-.047.298-.133.414-.248l18.621-18.621C31.389 8.926 32 7.448 32 5.878c-.001-1.569-.611-3.046-1.724-4.156zM10.092 27.165l-3.724 1.144c-.217-.637-.555-1.201-1.016-1.662-.401-.399-.866-.709-1.356-.961L5.7 21H8v2c0 .553.447 1 1 1h1.765l-.673 3.165zm14.72-14.494L12.628 24.855l.35-1.647c.062-.296-.012-.603-.202-.837-.19-.235-.475-.371-.776-.371h-2v-2c0-.552-.448-1-1-1H7.422L19.315 7.175l.012.011c.732-.733 1.707-1.136 2.742-1.136s2.011.403 2.742 1.136 1.138 1.707 1.138 2.743c0 1.036-.403 2.009-1.137 2.742zm4.05-4.05l-.932.933c-.09-1.429-.683-2.761-1.703-3.782-1.021-1.022-2.354-1.614-3.787-1.703l.938-.931.002-.002C24.11 2.403 25.085 2 26.121 2s2.01.403 2.741 1.136C29.596 3.869 30 4.843 30 5.878c0 1.037-.402 2.011-1.138 2.743zm-6.569-.328l-10 10c-.391.391-.391 1.023 0 1.414.194.195.451.293.707.293s.511-.098.707-.293l10-10c.391-.391.391-1.023 0-1.414-.392-.391-1.023-.391-1.414 0z"/></svg>